<svg width="16" height="16" viewBox="0 0 16 16" fill="none" xmlns="http://www.w3.org/2000/svg">
<path d="M9.2735 0.667299C9.274 0.755037 9.25719 0.842013 9.22401 0.923238C9.19083 1.00446 9.14195 1.07834 9.08016 1.14063L2.22016 8.00063L9.08016 14.8606C9.18938 14.9882 9.24645 15.1522 9.23997 15.32C9.23349 15.4878 9.16394 15.6469 9.04521 15.7657C8.92648 15.8844 8.76732 15.954 8.59953 15.9604C8.43175 15.9669 8.2677 15.9099 8.14016 15.8006L0.333496 8.00063L8.14016 0.193967C8.23375 0.102229 8.3523 0.0401092 8.481 0.0153728C8.6097 -0.00936372 8.74283 0.00437961 8.86376 0.0548854C8.98469 0.105391 9.08805 0.190419 9.16092 0.299341C9.2338 0.408264 9.27295 0.536248 9.2735 0.667299Z" fill="#606060"/>
<path d="M15.94 0.663912C15.9405 0.75165 15.9237 0.838625 15.8905 0.91985C15.8573 1.00108 15.8085 1.07495 15.7467 1.13724L8.88667 7.99724L15.7467 14.8572C15.8559 14.9848 15.913 15.1488 15.9065 15.3166C15.9 15.4844 15.8304 15.6436 15.7117 15.7623C15.593 15.881 15.4338 15.9506 15.266 15.9571C15.0983 15.9635 14.9342 15.9065 14.8067 15.7972L7 7.99724L14.8067 0.190579C14.9003 0.0988414 15.0188 0.0367218 15.1475 0.0119853C15.2762 -0.0127512 15.4093 0.000992155 15.5303 0.0514979C15.6512 0.102004 15.7546 0.187032 15.8274 0.295954C15.9003 0.404876 15.9395 0.532861 15.94 0.663912Z" fill="#606060"/>
</svg>
