<svg width="13" height="12" viewBox="0 0 13 12" fill="none" xmlns="http://www.w3.org/2000/svg">
<path d="M7.03303 0.500067C7.03341 0.565816 7.0208 0.630995 6.99594 0.691864C6.97108 0.752733 6.93445 0.808095 6.88815 0.854777L1.74734 5.99558L6.88815 11.1364C6.96999 11.232 7.01276 11.3549 7.0079 11.4806C7.00305 11.6064 6.95092 11.7256 6.86195 11.8146C6.77297 11.9036 6.6537 11.9557 6.52797 11.9606C6.40223 11.9654 6.27929 11.9227 6.18372 11.8408L0.333496 5.99558L6.18372 0.145357C6.25385 0.0766097 6.3427 0.0300579 6.43914 0.0115207C6.53558 -0.00701652 6.63535 0.00328256 6.72597 0.041131C6.8166 0.0789794 6.89406 0.142698 6.94867 0.224323C7.00328 0.305948 7.03262 0.401859 7.03303 0.500067Z" fill="#606060"/>
<path d="M12.0288 0.497526C12.0292 0.563276 12.0166 0.628454 11.9917 0.689323C11.9669 0.750192 11.9302 0.805554 11.8839 0.852236L6.74313 5.99304L11.8839 11.1338C11.9658 11.2294 12.0085 11.3524 12.0037 11.4781C11.9988 11.6038 11.9467 11.7231 11.8577 11.8121C11.7688 11.901 11.6495 11.9532 11.5238 11.958C11.398 11.9629 11.2751 11.9201 11.1795 11.8383L5.32928 5.99304L11.1795 0.142816C11.2496 0.0740691 11.3385 0.0275173 11.4349 0.00898011C11.5314 -0.00955711 11.6311 0.000741973 11.7218 0.0385904C11.8124 0.0764388 11.8898 0.140158 11.9445 0.221783C11.9991 0.303408 12.0284 0.399318 12.0288 0.497526Z" fill="#606060"/>
</svg>
