<svg width="16" height="17" viewBox="0 0 16 17" fill="none" xmlns="http://www.w3.org/2000/svg">
<path d="M10.6668 15.6673H2.00016C1.36016 15.6673 0.833496 15.1407 0.833496 14.5007V5.83398C0.833496 2.88732 2.38683 1.33398 5.3335 1.33398H10.6668C13.6135 1.33398 15.1668 2.88732 15.1668 5.83398V11.1673C15.1668 14.114 13.6135 15.6673 10.6668 15.6673ZM5.3335 2.33398C2.94683 2.33398 1.8335 3.44732 1.8335 5.83398V14.5007C1.8335 14.594 1.90683 14.6673 2.00016 14.6673H10.6668C13.0535 14.6673 14.1668 13.554 14.1668 11.1673V5.83398C14.1668 3.44732 13.0535 2.33398 10.6668 2.33398H5.3335Z" fill="#606060"/>
<path d="M5.29983 12.3339C4.9865 12.3339 4.69983 12.2205 4.4865 12.0139C4.23316 11.7605 4.11982 11.4005 4.17982 11.0139L4.36648 9.69386C4.40648 9.40719 4.58649 9.04052 4.79316 8.83386L8.25316 5.37386C9.43983 4.18719 10.4732 4.72052 11.1265 5.37386C11.6398 5.88719 11.8732 6.42719 11.8198 6.96719C11.7798 7.40719 11.5465 7.82052 11.1265 8.24719L7.66649 11.7072C7.45982 11.9139 7.09982 12.0939 6.80648 12.1405L5.4865 12.3272C5.4265 12.3272 5.35983 12.3339 5.29983 12.3339ZM9.68649 5.66719C9.43982 5.66719 9.21983 5.82719 8.9665 6.07386L5.5065 9.53386C5.45316 9.58719 5.37316 9.75386 5.35983 9.82719L5.17316 11.1472C5.1665 11.2139 5.17315 11.2739 5.19981 11.3005C5.22648 11.3272 5.28649 11.3339 5.35316 11.3272L6.67316 11.1405C6.75316 11.1272 6.91316 11.0472 6.9665 10.9939L10.4265 7.53386C10.6798 7.28052 10.8132 7.06052 10.8332 6.86052C10.8532 6.63386 10.7198 6.36719 10.4265 6.07386C10.1332 5.79386 9.89982 5.66719 9.68649 5.66719Z" fill="#606060"/>
<path d="M10.2797 8.88648C10.2331 8.88648 10.1864 8.87982 10.1464 8.86648C8.93971 8.52648 7.97305 7.56648 7.63305 6.35315C7.55972 6.08648 7.71304 5.81315 7.97971 5.73315C8.24638 5.65982 8.51972 5.81315 8.59305 6.07982C8.83972 6.95315 9.53971 7.65315 10.413 7.89982C10.6797 7.97315 10.8331 8.25315 10.7597 8.51982C10.6997 8.73982 10.4997 8.88648 10.2797 8.88648Z" fill="#606060"/>
</svg>
