<svg width="16" height="17" viewBox="0 0 16 17" fill="none" xmlns="http://www.w3.org/2000/svg">
<path d="M10.6665 15.3803C10.4398 15.3803 10.2198 15.3136 10.0265 15.187L7.1865 13.2936H5.92651C5.77318 13.2936 5.6265 13.2203 5.53316 13.1003C5.43983 12.9736 5.40651 12.8136 5.44651 12.667C5.48651 12.507 5.50651 12.347 5.50651 12.1736C5.50651 11.6403 5.30651 11.127 4.94651 10.727C4.53985 10.267 3.95984 10.007 3.33984 10.007C2.74651 10.007 2.19983 10.2403 1.7865 10.6603C1.65983 10.7936 1.46651 10.8403 1.29317 10.7936C1.11984 10.7403 0.97984 10.6003 0.93984 10.4203C0.873173 10.127 0.839844 9.80695 0.839844 9.46029V5.46029C0.839844 3.16695 2.37984 1.62695 4.67318 1.62695H11.3398C13.6332 1.62695 15.1732 3.16695 15.1732 5.46029V9.46029C15.1732 10.5736 14.8065 11.5336 14.1065 12.2336C13.5198 12.8203 12.7398 13.1736 11.8398 13.267V14.2136C11.8398 14.647 11.5998 15.0403 11.2198 15.2469C11.0398 15.3336 10.8532 15.3803 10.6665 15.3803ZM6.49984 12.2869H7.33317C7.43317 12.2869 7.52651 12.3136 7.61318 12.3736L10.5798 14.3536C10.6532 14.4003 10.7132 14.3803 10.7465 14.3603C10.7798 14.3403 10.8398 14.3003 10.8398 14.2069V12.7869C10.8398 12.5136 11.0665 12.2869 11.3398 12.2869C12.1865 12.2869 12.8998 12.0203 13.3998 11.5203C13.9065 11.0136 14.1732 10.3003 14.1732 9.45361V5.45361C14.1732 3.73361 13.0598 2.62028 11.3398 2.62028H4.67318C2.95318 2.62028 1.83984 3.73361 1.83984 5.45361V9.37362C2.29318 9.12695 2.80651 9.00028 3.33984 9.00028C4.24651 9.00028 5.10651 9.38696 5.69318 10.0536C6.21318 10.6336 6.50651 11.3803 6.50651 12.167C6.49984 12.207 6.49984 12.2469 6.49984 12.2869Z" fill="#606060"/>
<path d="M3.33317 15.3333C1.5865 15.3333 0.166504 13.9133 0.166504 12.1667C0.166504 11.1933 0.599836 10.2933 1.35317 9.69332C1.91317 9.24665 2.61984 9 3.33317 9C5.07984 9 6.49984 10.42 6.49984 12.1667C6.49984 13.0733 6.10651 13.94 5.41984 14.54C4.83984 15.0533 4.09984 15.3333 3.33317 15.3333ZM3.33317 10C2.83984 10 2.37317 10.1666 1.97984 10.48C1.4665 10.8866 1.1665 11.5067 1.1665 12.1667C1.1665 13.36 2.13984 14.3333 3.33317 14.3333C3.85317 14.3333 4.35983 14.14 4.7665 13.7933C5.23317 13.38 5.49984 12.7933 5.49984 12.1667C5.49984 10.9733 4.5265 10 3.33317 10Z" fill="#606060"/>
<path d="M2.66676 13.334C2.50009 13.334 2.33342 13.2473 2.24008 13.094C2.10008 12.854 2.17342 12.5473 2.41342 12.4073L3.00677 12.054V11.334C3.00677 11.0607 3.23343 10.834 3.50677 10.834C3.7801 10.834 4.00677 11.0607 4.00677 11.334V12.334C4.00677 12.5073 3.91342 12.674 3.76675 12.7607L2.93342 13.2607C2.84009 13.314 2.75343 13.334 2.66676 13.334Z" fill="#606060"/>
<path d="M10.3332 8H5.6665C5.39317 8 5.1665 7.77333 5.1665 7.5C5.1665 7.22667 5.39317 7 5.6665 7H10.3332C10.6065 7 10.8332 7.22667 10.8332 7.5C10.8332 7.77333 10.6065 8 10.3332 8Z" fill="#606060"/>
</svg>
