<svg width="16" height="17" viewBox="0 0 16 17" fill="none" xmlns="http://www.w3.org/2000/svg">
<path d="M11.3335 14.6673H4.66683C4.3935 14.6673 4.16683 14.4407 4.16683 14.1673C4.16683 13.894 4.3935 13.6673 4.66683 13.6673H11.3335C13.2402 13.6673 14.1668 12.7407 14.1668 10.834V6.16732C14.1668 4.26065 13.2402 3.33398 11.3335 3.33398H4.66683C2.76016 3.33398 1.8335 4.26065 1.8335 6.16732C1.8335 6.44065 1.60683 6.66732 1.3335 6.66732C1.06016 6.66732 0.833496 6.44065 0.833496 6.16732C0.833496 3.73398 2.2335 2.33398 4.66683 2.33398H11.3335C13.7668 2.33398 15.1668 3.73398 15.1668 6.16732V10.834C15.1668 13.2673 13.7668 14.6673 11.3335 14.6673Z" fill="#606060"/>
<path d="M7.99969 9.07998C7.43969 9.07998 6.87302 8.90665 6.43969 8.55331L4.35302 6.88665C4.13969 6.71331 4.09969 6.39998 4.27302 6.18665C4.44636 5.97331 4.75968 5.93332 4.97302 6.10665L7.05969 7.77332C7.56635 8.17998 8.42635 8.17998 8.93302 7.77332L11.0197 6.10665C11.233 5.93332 11.553 5.96665 11.7197 6.18665C11.893 6.39998 11.8597 6.71998 11.6397 6.88665L9.55301 8.55331C9.12635 8.90665 8.55969 9.07998 7.99969 9.07998Z" fill="#606060"/>
<path d="M5.3335 12H1.3335C1.06016 12 0.833496 11.7733 0.833496 11.5C0.833496 11.2267 1.06016 11 1.3335 11H5.3335C5.60683 11 5.8335 11.2267 5.8335 11.5C5.8335 11.7733 5.60683 12 5.3335 12Z" fill="#606060"/>
<path d="M3.3335 9.33398H1.3335C1.06016 9.33398 0.833496 9.10732 0.833496 8.83398C0.833496 8.56065 1.06016 8.33398 1.3335 8.33398H3.3335C3.60683 8.33398 3.8335 8.56065 3.8335 8.83398C3.8335 9.10732 3.60683 9.33398 3.3335 9.33398Z" fill="#606060"/>
</svg>
